# xmcd CD database file
#
# Track frame offsets:
#	150
#	20977
#	40755
#	60857
#	81672
#	100912
#	121629
#	142662
#	162050
#	183352
#	200677
#	219795
#	240559
#	261227
#	280702
#
# Disc length: 4033 seconds
#
# Revision: 2
# Processed by: cddbd v1.5.2PL0 Copyright (c) Steve Scherf et al.
# Submitted via: CDex 1.70beta2
#
DISCID=c50fbf0f
DTITLE=RIKARENA - GRANDES EXITOS
DYEAR=2001
DGENRE=Merengue
TTITLE0=ERA MENTIRA
TTITLE1=TE VOY A HACER FALTA
TTITLE2=LICOR
TTITLE3=EL MERENGAZO (EL GORILA)
TTITLE4=EL TAZO
TTITLE5=NO PUEDO OLVIDARLA
TTITLE6=CUTIBILI PACHA
TTITLE7=TE DEJE DE QUERER
TTITLE8=SE FUE DE MI VIDA
TTITLE9=AY!!!
TTITLE10=NUNCA TE MENTI
TTITLE11=FUEGO CON TO'
TTITLE12=SUEÑOS
TTITLE13=LA MIRADA
TTITLE14=RIKARENA MIX
EXTD=YEAR: 2001
EXTT0=
EXTT1=
EXTT2=
EXTT3=
EXTT4=
EXTT5=
EXTT6=
EXTT7=
EXTT8=
EXTT9=
EXTT10=
EXTT11=
EXTT12=
EXTT13=
EXTT14=
PLAYORDER=
